<svg width="218" height="44" viewBox="0 0 218 44" fill="none" xmlns="http://www.w3.org/2000/svg">
<rect width="100%" height="100%" fill="#222225"/>
<path d="M13.9611 22.5322C13.6952 22.7699 13.385 22.9486 13.0496 23.057C12.6648 23.1886 12.2721 23.2937 11.8739 23.3715C11.455 23.4553 11.0146 23.526 10.5562 23.5818C10.0977 23.6377 9.63752 23.7084 9.17731 23.7921C8.74541 23.8757 8.31909 23.9876 7.90092 24.1271C7.5085 24.2532 7.13867 24.445 6.8061 24.6948C6.49447 24.9334 6.23833 25.2412 6.05645 25.5955C5.85163 26.0273 5.75401 26.5051 5.7724 26.9858C5.75765 27.4506 5.85528 27.9118 6.05645 28.3276C6.23641 28.6794 6.50391 28.975 6.83127 29.1837C7.17985 29.4034 7.5653 29.553 7.96743 29.6248C8.40852 29.7098 8.85628 29.7522 9.30494 29.7514C10.4399 29.7514 11.3184 29.5553 11.9404 29.1633C12.509 28.826 12.9835 28.3419 13.3175 27.7581C13.5998 27.247 13.783 26.6837 13.8568 26.0999C13.9155 25.6544 13.9492 25.2057 13.9575 24.7562L13.9611 22.5322ZM0.657861 18.1251C0.740557 16.7281 1.07853 15.5674 1.67178 14.643C2.25785 13.7301 3.03907 12.9691 3.9549 12.419C4.91409 11.8434 5.95998 11.4388 7.04879 11.2223C8.1899 10.985 9.35091 10.8653 10.5148 10.865C11.5865 10.8668 12.6568 10.944 13.7184 11.0958C14.7444 11.2338 15.743 11.5384 16.6774 11.9984C17.5438 12.4233 18.2958 13.0624 18.8671 13.8595C19.4328 14.656 19.7162 15.7107 19.7174 17.0234V28.3127C19.7147 29.2527 19.7694 30.192 19.881 31.1249C19.9871 32.02 20.1776 32.6919 20.4473 33.1404H14.61C14.502 32.8032 14.4138 32.4595 14.3458 32.1112C14.2781 31.7577 14.2307 31.4004 14.2038 31.0411C13.3144 32.0073 12.1992 32.7195 10.966 33.1088C9.73138 33.499 8.44758 33.6972 7.15666 33.6969C6.21216 33.7061 5.27093 33.5808 4.35939 33.3247C3.53391 33.0945 2.7617 32.6944 2.08885 32.1485C1.43504 31.6114 0.913777 30.9212 0.567975 30.1348C0.186083 29.2218 0.00199579 28.2334 0.0286557 27.2389C0.0286557 26.0081 0.237792 24.9938 0.656064 24.196C1.04234 23.4363 1.59676 22.782 2.27402 22.2865C2.96266 21.7976 3.72778 21.4355 4.53557 21.2164C5.38323 20.9819 6.24263 20.7956 7.10992 20.6581C7.97522 20.5166 8.82675 20.4043 9.66449 20.3212C10.4154 20.2538 11.1604 20.1294 11.8937 19.949C12.454 19.8217 12.9802 19.5674 13.4343 19.2046C13.8119 18.8844 13.9874 18.4161 13.9611 17.7994C13.9884 17.268 13.8857 16.7379 13.6626 16.2584C13.473 15.895 13.1931 15.5905 12.8519 15.3763C12.4906 15.1576 12.091 15.0152 11.6761 14.9575C11.2 14.8852 10.7192 14.8504 10.238 14.8533C9.1042 14.8533 8.21252 15.1015 7.56294 15.5978C6.91336 16.094 6.53284 16.9365 6.42138 18.1251H0.657861Z" fill="#F80032"/>
<path d="M29.1915 11.4532V14.39H29.2724C29.9799 13.3162 30.916 12.4248 32.0086 11.7844C33.1337 11.152 34.3977 10.8315 35.6777 10.8539C36.9297 10.8377 38.1694 11.1098 39.3074 11.6504C40.4004 12.1827 41.2309 13.1201 41.799 14.4625C42.4757 13.4588 43.3371 12.6031 44.3338 11.9445C45.3993 11.2187 46.6625 10.8551 48.1234 10.8539C49.1645 10.8442 50.2017 10.9858 51.2047 11.2745C52.1023 11.5277 52.9335 11.9862 53.6371 12.6163C54.3437 13.2802 54.8862 14.1099 55.2191 15.0358C55.5966 16.0283 55.7854 17.2244 55.7854 18.624V33.1405H50.0326V20.8535C50.0326 20.1265 50.0056 19.4441 49.9517 18.8063C49.9128 18.2228 49.7612 17.6532 49.5059 17.1314C49.2594 16.6538 48.8848 16.2602 48.4272 15.9979C47.955 15.7188 47.3133 15.5792 46.5019 15.5792C45.6905 15.5792 45.0349 15.7399 44.5352 16.0612C44.0483 16.3674 43.6444 16.7964 43.3612 17.3082C43.0675 17.8539 42.8748 18.4516 42.7932 19.0706C42.698 19.7304 42.6505 20.3967 42.6511 21.0638V33.1517H36.8984V20.9801C36.8984 20.3362 36.8846 19.6997 36.8571 19.0706C36.8364 18.4743 36.7204 17.8857 36.5137 17.3286C36.3146 16.8018 35.9597 16.3536 35.4998 16.0482C35.0204 15.7256 34.3246 15.5649 33.4126 15.5662C33.0469 15.5811 32.6845 15.6436 32.334 15.7523C31.8582 15.895 31.4162 16.1383 31.036 16.4669C30.5696 16.8787 30.2006 17.3957 29.9574 17.9782C29.6589 18.6357 29.5103 19.4956 29.5115 20.5576V33.1498H23.7588V11.4532H29.1915Z" fill="#F80032"/>
<path d="M72.4108 16.532C71.7216 15.7491 70.6742 15.3571 69.2683 15.3558C68.4789 15.3282 67.6944 15.4934 66.978 15.8378C66.4145 16.1234 65.9172 16.5316 65.5201 17.0345C65.17 17.4812 64.9079 17.9946 64.7488 18.5457C64.6118 19.0104 64.5232 19.489 64.4846 19.9732H73.8508C73.5799 18.462 73.1005 17.3149 72.4126 16.532H72.4108ZM65.9048 27.9461C66.7701 28.8146 68.0129 29.2489 69.6333 29.2489C70.6979 29.277 71.7446 28.9615 72.6283 28.3463C73.4672 27.7433 73.9808 27.1061 74.169 26.4349H79.2368C78.4266 29.0355 77.1826 30.8941 75.5047 32.0108C73.8268 33.1274 71.8001 33.6857 69.4247 33.6857C67.9012 33.7092 66.3874 33.4312 64.9646 32.8669C63.6903 32.357 62.541 31.5613 61.5992 30.5368C60.6601 29.4962 59.9358 28.2683 59.4707 26.9281C58.9575 25.448 58.7037 23.885 58.7211 22.3126C58.7136 20.7682 58.9792 19.2355 59.5049 17.7901C59.9836 16.4409 60.7254 15.2081 61.6841 14.1685C62.6429 13.1289 63.7981 12.3047 65.0778 11.7472C66.4566 11.1449 67.9409 10.8445 69.4373 10.865C71.2207 10.865 72.7745 11.2217 74.0988 11.9351C75.3854 12.6191 76.5006 13.6035 77.3563 14.8105C78.2224 16.045 78.8489 17.4419 79.2008 18.9235C79.583 20.4996 79.7202 22.1286 79.6071 23.7494H64.4846C64.5673 25.6787 65.0407 27.0776 65.9048 27.9461" fill="#F80032"/>
<path d="M88.0151 11.4533V15.4825H88.0888C88.3619 14.8091 88.731 14.1817 89.1836 13.6214C89.6367 13.0532 90.1693 12.5582 90.7638 12.153C91.3542 11.7495 91.9954 11.432 92.6694 11.2095C93.351 10.9835 94.0625 10.8699 94.7782 10.8726C95.2051 10.8807 95.6288 10.9515 96.0366 11.0829V16.6159C95.7651 16.5601 95.4415 16.5099 95.0622 16.4689C94.6992 16.4273 94.3344 16.4062 93.9692 16.4056C93.0487 16.3775 92.1339 16.5639 91.2924 16.9509C90.594 17.2877 89.9879 17.7994 89.5288 18.4398C89.0694 19.0987 88.7452 19.848 88.576 20.6415C88.3817 21.5368 88.287 22.4522 88.2938 23.3699V33.1499H82.541V11.4533H88.0151Z" fill="#F80032"/>
<path d="M103.974 11.4531H98.2173V33.1516H103.974V11.4531Z" fill="#F80032"/>
<path d="M117.762 15.3558C116.946 15.3256 116.141 15.5521 115.452 16.0053C114.83 16.438 114.31 17.0106 113.931 17.6803C113.533 18.3816 113.252 19.1473 113.101 19.9453C112.94 20.7536 112.858 21.5766 112.856 22.4019C112.859 23.2056 112.941 24.0069 113.101 24.7934C113.249 25.5666 113.515 26.3104 113.89 26.997C114.252 27.6497 114.759 28.2035 115.369 28.6124C116.05 29.0492 116.84 29.268 117.64 29.2414C119.018 29.2414 120.079 28.8432 120.824 28.0466C121.568 27.2501 122.034 26.1799 122.222 24.8362H127.775C127.397 27.7172 126.318 29.9133 124.54 31.4245C122.761 32.9357 120.477 33.6913 117.688 33.6913C116.213 33.708 114.748 33.43 113.374 32.8724C112.113 32.3656 110.97 31.588 110.021 30.5907C109.082 29.5847 108.348 28.3928 107.864 27.0863C107.338 25.6608 107.076 24.1455 107.093 22.6197C107.082 21.0297 107.325 19.4489 107.812 17.9409C108.251 16.5601 108.962 15.2883 109.899 14.2057C110.832 13.1428 111.978 12.3038 113.257 11.7471C114.697 11.1359 116.242 10.8357 117.798 10.865C119.013 10.8596 120.223 11.0293 121.393 11.3693C122.501 11.6846 123.545 12.2034 124.475 12.901C125.429 13.6106 126.212 14.5381 126.764 15.6115C127.316 16.6849 127.622 17.8755 127.659 19.091H122.019C121.64 16.6009 120.221 15.3558 117.762 15.3558" fill="#F80032"/>
<path d="M143.639 22.5322C143.372 22.7704 143.062 22.949 142.725 23.057C142.341 23.1891 141.948 23.2942 141.55 23.3716C141.13 23.4547 140.692 23.5248 140.234 23.5819C139.776 23.639 139.316 23.7091 138.855 23.7922C138.423 23.8755 137.997 23.9874 137.579 24.1272C137.186 24.2533 136.816 24.445 136.484 24.6948C136.172 24.9335 135.916 25.2412 135.734 25.5956C135.53 26.0262 135.432 26.5027 135.45 26.9821C135.435 27.4469 135.533 27.9081 135.734 28.3239C135.912 28.6764 136.178 28.9732 136.504 29.1838C136.851 29.4034 137.236 29.5531 137.638 29.6248C138.08 29.7097 138.528 29.7521 138.977 29.7514C140.111 29.7514 140.989 29.5554 141.611 29.1633C142.181 28.8269 142.656 28.3426 142.99 27.7582C143.275 27.2477 143.461 26.6844 143.538 26.0999C143.597 25.6532 143.631 25.2033 143.639 24.7525V22.5322ZM130.336 18.1251C130.417 16.7281 130.755 15.5674 131.349 14.643C131.931 13.7282 132.708 12.9641 133.62 12.4097C134.581 11.8333 135.63 11.4287 136.721 11.213C137.862 10.9757 139.023 10.856 140.187 10.8557C141.259 10.8577 142.329 10.9348 143.391 11.0865C144.417 11.2245 145.415 11.5291 146.35 11.9891C147.216 12.4135 147.967 13.0528 148.538 13.8502C149.106 14.6468 149.39 15.7014 149.39 17.0141V28.3035C149.387 29.2434 149.441 30.1826 149.551 31.1156C149.661 32.0108 149.848 32.6826 150.12 33.1312H144.288C144.179 32.7942 144.091 32.4504 144.023 32.102C143.955 31.7486 143.907 31.3912 143.881 31.0318C142.991 31.9933 141.877 32.7015 140.645 33.0883C139.41 33.4785 138.126 33.6767 136.834 33.6765C135.89 33.6855 134.949 33.5603 134.037 33.3042C133.212 33.0732 132.44 32.6733 131.767 32.128C131.114 31.5903 130.593 30.9003 130.247 30.1143C129.866 29.2014 129.681 28.2129 129.708 27.2185C129.708 25.9877 129.917 24.9734 130.336 24.1756C130.722 23.4159 131.276 22.7615 131.953 22.2661C132.643 21.7845 133.407 21.4294 134.213 21.2164C135.061 20.9818 135.92 20.7954 136.788 20.6581C137.653 20.5167 138.504 20.4044 139.342 20.3212C140.093 20.2537 140.838 20.1293 141.571 19.949C142.132 19.8217 142.658 19.5675 143.112 19.2046C143.489 18.8845 143.665 18.4161 143.639 17.7995C143.663 17.2706 143.558 16.744 143.335 16.2678C143.145 15.9043 142.865 15.5998 142.524 15.3856C142.163 15.1669 141.763 15.0246 141.348 14.9669C140.872 14.8946 140.391 14.8597 139.91 14.8626C138.776 14.8626 137.885 15.1108 137.235 15.6071C136.586 16.1034 136.207 16.9427 136.101 18.1251H130.336Z" fill="#F80032"/>
<path d="M158.878 11.4531V14.4737H158.998C159.657 13.2838 160.646 12.3262 161.837 11.7248C162.948 11.1637 164.168 10.8698 165.404 10.865C166.944 10.865 168.208 11.0821 169.195 11.5164C170.114 11.8943 170.92 12.5163 171.532 13.3198C172.127 14.1542 172.536 15.1145 172.73 16.1319C172.968 17.34 173.083 18.5708 173.073 19.8038V33.1516H167.32V20.8963C167.32 19.1059 167.05 17.7696 166.509 16.8875C165.969 16.0053 165.01 15.5649 163.633 15.5661C162.065 15.5661 160.93 16.0488 160.228 17.014C159.526 17.9793 159.17 19.5662 159.16 21.7747V33.1497H153.407V11.4531H158.878Z" fill="#F80032"/>
<path d="M189.972 22.5322C189.705 22.7696 189.394 22.9482 189.058 23.057C188.674 23.1886 188.281 23.2937 187.883 23.3716C187.464 23.4547 187.025 23.5248 186.565 23.5819C186.107 23.6377 185.646 23.7084 185.188 23.7922C184.755 23.8757 184.328 23.9876 183.91 24.1272C183.518 24.254 183.148 24.4457 182.815 24.6948C182.503 24.9335 182.247 25.2412 182.065 25.5956C181.862 26.0265 181.764 26.5028 181.781 26.9821C181.767 27.4468 181.865 27.908 182.065 28.3239C182.244 28.6766 182.51 28.9734 182.836 29.1838C183.184 29.4034 183.569 29.5531 183.971 29.6248C184.412 29.7098 184.86 29.7522 185.308 29.7514C186.444 29.7514 187.323 29.5554 187.944 29.1633C188.513 28.8261 188.988 28.342 189.323 27.7582C189.605 27.2471 189.788 26.6838 189.862 26.0999C189.922 25.6546 189.956 25.2059 189.964 24.7562L189.972 22.5322ZM176.668 18.1251C176.75 16.7281 177.088 15.5674 177.682 14.643C178.263 13.7274 179.04 12.9631 179.953 12.4097C180.914 11.8329 181.963 11.4284 183.054 11.213C184.195 10.9755 185.356 10.8558 186.52 10.8557C187.591 10.8576 188.661 10.9347 189.722 11.0865C190.748 11.2247 191.747 11.5293 192.683 11.9891C193.548 12.4141 194.3 13.0532 194.87 13.8502C195.438 14.6468 195.723 15.7014 195.723 17.0141V28.3035C195.72 29.2434 195.774 30.1826 195.884 31.1156C195.992 32.0114 196.182 32.6833 196.452 33.1312H190.615C190.506 32.7944 190.417 32.4506 190.351 32.102C190.282 31.7486 190.235 31.3912 190.209 31.0318C189.318 31.9929 188.204 32.7011 186.973 33.0883C185.738 33.4785 184.453 33.6767 183.162 33.6765C182.217 33.6855 181.276 33.5603 180.365 33.3042C179.539 33.0732 178.767 32.6733 178.094 32.128C177.441 31.5904 176.92 30.9004 176.573 30.1143C176.192 29.2011 176.008 28.2129 176.034 27.2185C176.034 25.9877 176.244 24.9734 176.663 24.1756C177.049 23.4155 177.603 22.761 178.281 22.2661C178.972 21.7839 179.738 21.4288 180.546 21.2164C181.393 20.9818 182.252 20.7954 183.119 20.6581C183.983 20.5167 184.834 20.4044 185.673 20.3212C186.424 20.254 187.169 20.1296 187.902 19.949C188.463 19.8217 188.99 19.5675 189.445 19.2046C189.822 18.8845 189.997 18.4155 189.972 17.7995C189.995 17.2705 189.89 16.7438 189.666 16.2678C189.477 15.9044 189.198 15.5998 188.857 15.3856C188.495 15.1674 188.096 15.0252 187.681 14.9669C187.205 14.8947 186.724 14.8599 186.243 14.8626C185.107 14.8626 184.215 15.1108 183.568 15.6071C182.921 16.1034 182.542 16.9427 182.432 18.1251H176.668Z" fill="#F80032"/>
<path d="M204.44 27.7582C204.685 28.2075 205.024 28.5947 205.432 28.8916C205.857 29.1932 206.331 29.4132 206.831 29.5411C207.368 29.6832 207.92 29.7539 208.474 29.7514C208.903 29.7489 209.331 29.6997 209.75 29.6044C210.175 29.5142 210.585 29.3586 210.966 29.1428C211.326 28.9365 211.638 28.6498 211.879 28.3035C212.131 27.9137 212.257 27.4509 212.238 26.9821C212.238 26.0863 211.664 25.4144 210.514 24.9665C209.365 24.5186 207.764 24.0707 205.711 23.6228C204.873 23.4367 204.055 23.1966 203.259 22.9324C202.505 22.6879 201.788 22.3346 201.13 21.8827C200.518 21.4597 200.005 20.9001 199.629 20.2449C199.231 19.5067 199.036 18.6703 199.063 17.8255C199.063 16.4272 199.326 15.2801 199.854 14.3843C200.364 13.5055 201.082 12.7759 201.941 12.2646C202.847 11.7326 203.835 11.3638 204.86 11.1739C205.957 10.9624 207.069 10.8571 208.184 10.8594C209.294 10.8567 210.401 10.9695 211.489 11.1963C212.498 11.3971 213.465 11.7801 214.345 12.3278C215.191 12.8638 215.909 13.5903 216.447 14.4532C217 15.3354 217.331 16.4477 217.439 17.7901H211.952C211.871 16.6437 211.451 15.867 210.694 15.4601C209.862 15.0375 208.944 14.8288 208.017 14.8515C207.665 14.8538 207.314 14.8749 206.964 14.9148C206.608 14.9515 206.259 15.0437 205.93 15.1883C205.624 15.3245 205.353 15.5329 205.139 15.7969C204.911 16.102 204.796 16.4817 204.815 16.867C204.808 17.1146 204.856 17.3605 204.954 17.5862C205.053 17.8119 205.2 18.0115 205.384 18.1698C205.821 18.5394 206.323 18.8175 206.863 18.9887C207.548 19.2162 208.245 19.4027 208.95 19.547C209.734 19.7145 210.531 19.8963 211.341 20.0923C212.171 20.286 212.99 20.5245 213.795 20.807C214.554 21.068 215.272 21.4443 215.924 21.9236C216.538 22.3786 217.049 22.966 217.423 23.6452C217.802 24.33 217.991 25.1762 217.991 26.1837C217.991 27.6118 217.714 28.8078 217.16 29.7719C216.631 30.7135 215.893 31.5119 215.009 32.102C214.072 32.7064 213.036 33.1261 211.952 33.3396C210.798 33.5784 209.623 33.6981 208.445 33.6969C207.247 33.7004 206.052 33.5757 204.878 33.3247C203.78 33.0986 202.729 32.6719 201.776 32.0647C200.869 31.4764 200.107 30.6797 199.546 29.7365C198.965 28.7712 198.647 27.5609 198.594 26.1055H204.066C204.05 26.684 204.184 27.2562 204.452 27.7638" fill="#F80032"/>
<path d="M217.935 0H0V5.63912H217.935V0Z" fill="#F80032"/>
<path d="M217.935 38.3608H0V44H217.935V38.3608Z" fill="#F80032"/>
</svg>
